<?xml version="1.0" standalone="no"?> <!DOCTYPE svg PUBLIC "-//W3C//DTD SVG 20010904//EN" "http://www.w3.org/TR/2001/REC-SVG-20010904/DTD/svg10.dtd"> <svg version="1.0" xmlns="http://www.w3.org/2000/svg" width="300.000000pt" height="300.000000pt" viewBox="0 0 300.000000 300.000000" preserveAspectRatio="xMidYMid meet"> <g transform="translate(0.000000,300.000000) scale(0.100000,-0.100000)" fill="#00a3d7" stroke="none"> <path d="M1476 1837 c-38 -22 -39 -24 -68 -142 -37 -157 -45 -175 -74 -175 -13 0 -28 9 -35 21 -9 18 -4 31 35 88 49 71 69 137 46 151 -18 11 -147 -54 -153 -77 -20 -71 -21 -68 73 -191 49 -65 90 -125 90 -135 0 -20 -33 -39 -54 -31 -8 3 -22 27 -31 52 -10 26 -23 66 -31 88 -17 47 -47 79 -67 71 -7 -2 -21 -39 -31 -81 l-18 -76 29 -34 28 -35 110 -1 c155 -2 209 -11 213 -33 5 -24 -16 -47 -43 -47 -12 0 -49 11 -83 25 -70 28 -130 33 -138 10 -4 -8 14 -40 42 -75 46 -58 48 -60 94 -60 47 0 48 1 106 72 133 162 160 183 184 139 16 -30 4 -45 -69 -87 -38 -21 -78 -52 -89 -68 -31 -44 -15 -56 73 -56 73 0 74 1 104 37 19 23 29 44 26 57 -3 12 -13 59 -24 106 -34 148 -36 177 -13 189 23 12 48 6 56 -15 3 -7 0 -51 -6 -96 -11 -89 -2 -138 26 -138 13 0 92 90 103 116 2 7 0 30 -6 52 -11 38 -15 42 -146 108 -113 57 -135 72 -135 91 0 12 9 27 21 33 25 14 55 -3 95 -56 16 -20 46 -48 67 -61 35 -22 41 -23 55 -10 13 14 13 23 -3 87 -17 69 -19 72 -61 93 l-43 21 -131 -63 c-135 -64 -163 -69 -176 -29 -10 33 15 47 96 54 154 14 181 50 75 102 -36 18 -69 32 -73 32 -4 0 -24 -10 -46 -23z m69 -17 c-3 -5 0 -10 8 -10 8 0 28 -7 43 -15 16 -8 23 -15 16 -15 -7 0 -10 -5 -6 -12 4 -7 3 -8 -4 -4 -6 4 -20 2 -31 -3 -10 -6 -41 -8 -69 -4 -41 4 -49 9 -44 22 6 17 32 46 32 36 0 -3 8 -1 18 4 22 13 45 14 37 1z m-190 -93 c-9 -43 -29 -78 -41 -73 -8 3 -13 2 -12 -2 4 -13 -13 -52 -23 -52 -8 0 -13 15 -10 33 1 5 -3 6 -8 3 -17 -11 -21 11 -7 39 18 34 64 65 84 57 11 -4 13 -2 7 8 -5 8 -4 11 3 7 5 -4 9 -13 7 -20z m390 -7 c-3 -5 0 -8 7 -5 23 8 38 -10 52 -66 8 -30 13 -55 11 -57 -4 -4 -40 25 -70 56 -12 12 -28 22 -35 22 -7 0 -10 7 -6 16 3 8 2 12 -4 9 -6 -3 -10 -2 -10 2 0 5 10 13 23 19 29 15 40 16 32 4z m-150 -103 l60 -32 14 -67 14 -67 -43 -56 -42 -55 -72 0 -71 0 -42 53 c-46 55 -47 64 -30 142 12 48 15 51 76 83 35 17 67 32 70 32 3 0 33 -15 66 -33z m-349 -128 c0 -8 5 -25 11 -39 24 -58 24 -76 -1 -88 -19 -8 -27 -8 -36 3 -6 8 -8 20 -4 26 4 8 3 9 -4 5 -16 -9 -16 40 -1 83 11 31 33 38 35 10z m577 -8 c-2 -6 3 -10 10 -8 20 4 17 -74 -6 -103 -47 -62 -65 7 -31 118 5 16 30 9 27 -7z m-425 -227 c28 -10 52 -22 52 -27 0 -4 4 -6 9 -3 4 3 6 -5 4 -18 -4 -18 -12 -23 -41 -24 -30 -1 -43 5 -72 36 -34 35 -43 69 -16 59 6 -2 35 -13 64 -23z m312 -3 c7 -15 7 -22 -3 -28 -8 -4 -16 -16 -20 -25 -5 -14 -18 -18 -50 -18 -49 0 -81 23 -50 34 10 3 36 17 58 31 48 30 52 30 65 6z"/> </g> </svg>